<svg width="148" height="31" viewBox="0 0 148 31" fill="none" xmlns="http://www.w3.org/2000/svg">
<g clip-path="url(#clip0_63_2903)">
<path d="M7.85635 30.4952H0.414551V0.5H7.85635V30.4952Z" fill="black"/>
<path d="M21.4747 30.4951C17.8846 30.4951 15.0958 29.5398 13.1097 27.6307C11.1236 25.7217 10.1313 23.0035 10.1313 19.4745C10.1313 15.9454 11.0513 13.0394 12.8913 11.0918C14.7313 9.14426 17.358 8.16968 20.7698 8.16968C24.1817 8.16968 26.5274 9.01742 28.2967 10.7097C30.0661 12.4036 30.9523 14.8424 30.9523 18.0279V21.3401H17.6486C17.7 22.5459 18.1399 23.49 18.9716 24.1756C19.8033 24.8611 20.9352 25.2031 22.369 25.2031C23.6759 25.2031 24.8785 25.0795 25.9751 24.8322C27.0717 24.585 28.2614 24.1627 29.5426 23.5671V28.9152C28.3754 29.5125 27.1696 29.9251 25.9269 30.1531C24.6826 30.3811 23.199 30.4951 21.4731 30.4951H21.4747ZM21.0364 13.2336C20.1613 13.2336 19.4292 13.5098 18.8383 14.0621C18.2491 14.6144 17.9023 15.4798 17.8011 16.6599H24.1961C24.1704 15.6195 23.875 14.7894 23.3114 14.1665C22.7463 13.5451 21.9885 13.2336 21.0364 13.2336Z" fill="black"/>
<path d="M47.2748 30.1131L45.8474 27.2584H45.6949C44.693 28.5027 43.6703 29.352 42.6315 29.808C41.5911 30.264 40.2456 30.4936 38.5967 30.4936C36.5656 30.4936 34.9665 29.8851 33.8008 28.6664C32.6336 27.4494 32.0508 25.7347 32.0508 23.5286C32.0508 21.3226 32.8504 19.5227 34.4479 18.3988C36.047 17.2766 38.3623 16.6456 41.3952 16.5059L44.9916 16.3919V16.0868C44.9916 14.3111 44.1166 13.4232 42.3649 13.4232C40.7915 13.4232 38.7942 13.9562 36.3698 15.0223L34.2183 10.1125C36.731 8.81843 39.902 8.17139 43.7345 8.17139C46.5009 8.17139 48.6411 8.85696 50.1584 10.2265C51.674 11.5961 52.4334 13.5131 52.4334 15.9744V30.1147H47.2764L47.2748 30.1131ZM41.7548 25.2418C42.6555 25.2418 43.4262 24.956 44.0668 24.3844C44.7075 23.8144 45.027 23.071 45.027 22.1575V20.4829L43.3154 20.5583C40.8653 20.6482 39.6419 21.549 39.6419 23.2605C39.6419 24.5803 40.3467 25.2402 41.7548 25.2402V25.2418Z" fill="black"/>
<path d="M72.1992 23.49C72.1992 25.7988 71.4125 27.544 69.839 28.7241C68.2656 29.9042 66.0065 30.4935 63.0635 30.4935C61.466 30.4935 60.0756 30.4084 58.8955 30.2366C57.7154 30.0648 56.5096 29.7517 55.2797 29.2941V23.3375C56.4341 23.8448 57.6993 24.2639 59.0769 24.593C60.4529 24.9238 61.6811 25.0875 62.7601 25.0875C64.3721 25.0875 65.1764 24.7199 65.1764 23.9845C65.1764 23.604 64.9517 23.2636 64.5005 22.9666C64.0493 22.6695 62.7392 22.0883 60.5701 21.2261C58.5904 20.4137 57.2064 19.4921 56.4213 18.4565C55.6346 17.4226 55.2412 16.1124 55.2412 14.5261C55.2412 12.5208 56.0151 10.9618 57.5629 9.84428C59.1106 8.72841 61.299 8.16968 64.1296 8.16968C65.5505 8.16968 66.8864 8.32542 68.1355 8.63529C69.3846 8.94677 70.6835 9.39954 72.0274 9.99521L70.0092 14.791C69.0202 14.3479 67.9733 13.969 66.8687 13.6591C65.7657 13.3476 64.8634 13.1919 64.1666 13.1919C62.9479 13.1919 62.3394 13.4905 62.3394 14.0862C62.3394 14.4539 62.5514 14.7686 62.9768 15.0287C63.4023 15.2888 64.6306 15.8186 66.66 16.6182C68.1692 17.2395 69.2963 17.8496 70.0381 18.4453C70.7815 19.041 71.3258 19.7426 71.6758 20.5486C72.0242 21.3546 72.1992 22.334 72.1992 23.4884V23.49Z" fill="black"/>
<path d="M84.7901 30.4951C81.1985 30.4951 78.4112 29.5398 76.4251 27.6307C74.439 25.7217 73.4468 23.0035 73.4468 19.4745C73.4468 15.9454 74.3668 13.0394 76.2067 11.0918C78.0467 9.14426 80.6734 8.16968 84.0853 8.16968C87.4971 8.16968 89.8428 9.01742 91.6122 10.7097C93.3815 12.4036 94.2678 14.8424 94.2678 18.0279V21.3401H80.964C81.0138 22.5459 81.4553 23.49 82.287 24.1756C83.1171 24.8611 84.2506 25.2031 85.6844 25.2031C86.9913 25.2031 88.1923 25.0795 89.2905 24.8322C90.3887 24.585 91.5768 24.1627 92.8597 23.5671V28.9152C91.6924 29.5125 90.4867 29.9251 89.2439 30.1531C87.9996 30.3811 86.5161 30.4951 84.7901 30.4951ZM84.3518 13.2336C83.4767 13.2336 82.743 13.5098 82.1538 14.0621C81.5645 14.6144 81.2177 15.4798 81.1166 16.6599H87.5115C87.4858 15.6195 87.192 14.7894 86.6269 14.1665C86.0617 13.5451 85.3039 13.2336 84.3534 13.2336H84.3518Z" fill="black"/>
<path d="M99.3044 30.5001H97.4194V0.691162H99.3044V30.5017V30.5001Z" fill="#822A85"/>
<path d="M104.017 3.86864C104.017 2.65001 104.416 2.0415 105.216 2.0415C105.609 2.0415 105.916 2.20045 106.139 2.51836C106.361 2.83626 106.472 3.28582 106.472 3.87024C106.472 4.45467 106.361 4.89138 106.139 5.22213C105.916 5.55288 105.609 5.71664 105.216 5.71664C104.418 5.71664 104.017 5.10171 104.017 3.87024V3.86864ZM106.166 30.5002H104.283V9.61656H106.166V30.5002Z" fill="#822A85"/>
<path d="M125.573 30.5002V16.8866C125.573 14.8058 125.135 13.2933 124.26 12.3477C123.383 11.402 122.026 10.9299 120.188 10.9299C117.714 10.9299 115.903 11.5545 114.753 12.8052C113.605 14.0544 113.032 16.0822 113.032 18.8855V30.5002H111.147V9.61658H112.746L113.107 12.452H113.221C114.565 10.2941 116.958 9.2168 120.397 9.2168C125.091 9.2168 127.439 11.7359 127.439 16.7726V30.5002H125.575H125.573Z" fill="#822A85"/>
<path d="M134.034 21.2263L144.596 9.6165H146.881L138.735 18.4471L147.585 30.5001H145.322L137.461 19.8552L134.073 22.9379V30.5001H132.188V0.691162H134.073V15.5362L133.94 21.2263H134.036H134.034Z" fill="#822A85"/>
</g>
<defs>
<clipPath id="clip0_63_2903">
<rect width="147.171" height="30" fill="white" transform="translate(0.414551 0.5)"/>
</clipPath>
</defs>
</svg>
