<svg width="20" height="20" viewBox="0 0 20 20" fill="none" xmlns="http://www.w3.org/2000/svg">
<path d="M18 10.25C18 14.8063 14.3063 18.5 9.75 18.5C5.19365 18.5 1.5 14.8063 1.5 10.25C1.5 5.69365 5.19365 2 9.75 2C14.3063 2 18 5.69365 18 10.25Z" stroke="#822A85" stroke-width="2"/>
<path d="M9.77308 15.3107C10.1354 15.3107 10.4291 15.017 10.4291 14.6547C10.4291 14.2924 10.1354 13.9987 9.77308 13.9987C9.41077 13.9987 9.11707 14.2924 9.11707 14.6547C9.11707 15.017 9.41077 15.3107 9.77308 15.3107Z" fill="#822A85"/>
<path d="M7.36768 8.11652C7.36768 6.77595 8.45441 5.68921 9.79499 5.68921C11.1356 5.68921 12.2223 6.77595 12.2223 8.11652C12.2223 9.45709 10.6478 9.6253 9.79499 10.5438C8.94222 11.4624 9.79499 12.3956 9.79499 12.3956" stroke="#822A85" stroke-linecap="round" stroke-linejoin="round"/>
</svg>
